<?xml version="1.0" standalone="no"?>
<!DOCTYPE svg PUBLIC "-//W3C//DTD SVG 20010904//EN"
 "http://www.w3.org/TR/2001/REC-SVG-20010904/DTD/svg10.dtd">
<svg version="1.0" xmlns="http://www.w3.org/2000/svg"
 width="167.000000pt" height="168.000000pt" viewBox="0 0 167.000000 168.000000"
 preserveAspectRatio="xMidYMid meet">
<metadata>
Created by potrace 1.11, written by Peter Selinger 2001-2013
</metadata>
<g transform="translate(0.000000,168.000000) scale(0.100000,-0.100000)"
fill="#000000" stroke="none">
<path d="M788 1675 c-2 -1 -28 -5 -58 -9 -306 -33 -581 -255 -684 -551 -33
-94 -37 -121 -41 -251 -10 -335 167 -625 471 -772 126 -61 230 -82 384 -77
216 6 385 76 544 225 136 128 235 320 252 489 13 137 11 184 -21 336 -23 108
-125 279 -224 374 -100 96 -262 189 -362 206 -18 3 -35 8 -39 10 -15 9 -214
27 -222 20z"/>
</g>
</svg>
